<svg width="259" height="66" viewBox="0 0 259 66" fill="none" xmlns="http://www.w3.org/2000/svg">
<g filter="url(#filter0_dd_1_752)">
<rect x="3" y="2" width="253" height="60" rx="8" fill="white"/>
<path d="M52.2642 39V24.4545H58.0881C59.1581 24.4545 60.0507 24.6132 60.7656 24.9304C61.4806 25.2476 62.018 25.688 62.3778 26.2514C62.7377 26.8101 62.9176 27.4541 62.9176 28.1832C62.9176 28.7514 62.804 29.2509 62.5767 29.6818C62.3494 30.108 62.0369 30.4583 61.6392 30.733C61.2462 31.0028 60.7964 31.1946 60.2898 31.3082V31.4503C60.8438 31.474 61.3622 31.6302 61.8452 31.919C62.3329 32.2079 62.7282 32.6127 63.0312 33.1335C63.3343 33.6496 63.4858 34.2652 63.4858 34.9801C63.4858 35.7519 63.294 36.4408 62.9105 37.0469C62.5317 37.6482 61.9706 38.1241 61.2273 38.4744C60.4839 38.8248 59.5677 39 58.4787 39H52.2642ZM55.3395 36.4858H57.8466C58.7036 36.4858 59.3286 36.3224 59.7216 35.9957C60.1146 35.6643 60.3111 35.224 60.3111 34.6747C60.3111 34.2723 60.214 33.9171 60.0199 33.6094C59.8258 33.3016 59.5488 33.0601 59.1889 32.8849C58.8338 32.7098 58.41 32.6222 57.9176 32.6222H55.3395V36.4858ZM55.3395 30.5412H57.6193C58.0407 30.5412 58.4148 30.4678 58.7415 30.321C59.0729 30.1695 59.3333 29.9564 59.5227 29.6818C59.7169 29.4072 59.8139 29.0781 59.8139 28.6946C59.8139 28.169 59.6269 27.7453 59.2528 27.4233C58.8835 27.1013 58.358 26.9403 57.6761 26.9403H55.3395V30.5412ZM70.359 39.2131C69.2558 39.2131 68.3017 38.9787 67.4968 38.5099C66.6966 38.0365 66.0787 37.3783 65.6431 36.5355C65.2075 35.688 64.9897 34.7055 64.9897 33.5881C64.9897 32.4612 65.2075 31.4763 65.6431 30.6335C66.0787 29.786 66.6966 29.1278 67.4968 28.6591C68.3017 28.1856 69.2558 27.9489 70.359 27.9489C71.4622 27.9489 72.4139 28.1856 73.2141 28.6591C74.0191 29.1278 74.6393 29.786 75.0749 30.6335C75.5105 31.4763 75.7283 32.4612 75.7283 33.5881C75.7283 34.7055 75.5105 35.688 75.0749 36.5355C74.6393 37.3783 74.0191 38.0365 73.2141 38.5099C72.4139 38.9787 71.4622 39.2131 70.359 39.2131ZM70.3732 36.8693C70.8751 36.8693 71.2942 36.7273 71.6303 36.4432C71.9665 36.1544 72.2198 35.7614 72.3903 35.2642C72.5655 34.767 72.6531 34.2012 72.6531 33.5668C72.6531 32.9323 72.5655 32.3665 72.3903 31.8693C72.2198 31.3722 71.9665 30.9792 71.6303 30.6903C71.2942 30.4015 70.8751 30.2571 70.3732 30.2571C69.8666 30.2571 69.4405 30.4015 69.0948 30.6903C68.7539 30.9792 68.4959 31.3722 68.3207 31.8693C68.1502 32.3665 68.065 32.9323 68.065 33.5668C68.065 34.2012 68.1502 34.767 68.3207 35.2642C68.4959 35.7614 68.7539 36.1544 69.0948 36.4432C69.4405 36.7273 69.8666 36.8693 70.3732 36.8693ZM82.6246 39.2131C81.5214 39.2131 80.5674 38.9787 79.7624 38.5099C78.9622 38.0365 78.3443 37.3783 77.9087 36.5355C77.4731 35.688 77.2553 34.7055 77.2553 33.5881C77.2553 32.4612 77.4731 31.4763 77.9087 30.6335C78.3443 29.786 78.9622 29.1278 79.7624 28.6591C80.5674 28.1856 81.5214 27.9489 82.6246 27.9489C83.7279 27.9489 84.6796 28.1856 85.4798 28.6591C86.2847 29.1278 86.9049 29.786 87.3406 30.6335C87.7762 31.4763 87.994 32.4612 87.994 33.5881C87.994 34.7055 87.7762 35.688 87.3406 36.5355C86.9049 37.3783 86.2847 38.0365 85.4798 38.5099C84.6796 38.9787 83.7279 39.2131 82.6246 39.2131ZM82.6388 36.8693C83.1407 36.8693 83.5598 36.7273 83.896 36.4432C84.2321 36.1544 84.4854 35.7614 84.6559 35.2642C84.8311 34.767 84.9187 34.2012 84.9187 33.5668C84.9187 32.9323 84.8311 32.3665 84.6559 31.8693C84.4854 31.3722 84.2321 30.9792 83.896 30.6903C83.5598 30.4015 83.1407 30.2571 82.6388 30.2571C82.1322 30.2571 81.7061 30.4015 81.3604 30.6903C81.0195 30.9792 80.7615 31.3722 80.5863 31.8693C80.4158 32.3665 80.3306 32.9323 80.3306 33.5668C80.3306 34.2012 80.4158 34.767 80.5863 35.2642C80.7615 35.7614 81.0195 36.1544 81.3604 36.4432C81.7061 36.7273 82.1322 36.8693 82.6388 36.8693ZM92.7028 35.8608L92.7099 32.2315H93.1502L96.6445 28.0909H100.118L95.4229 33.5739H94.7056L92.7028 35.8608ZM89.9613 39V24.4545H92.9869V39H89.9613ZM96.7795 39L93.5692 34.2486L95.5863 32.1108L100.324 39H96.7795ZM106.288 39V24.4545H115.918V26.9901H109.363V30.456H115.279V32.9915H109.363V39H106.288ZM117.754 39V28.0909H120.688V29.9943H120.801C121 29.3172 121.334 28.8059 121.803 28.4602C122.271 28.1098 122.811 27.9347 123.422 27.9347C123.573 27.9347 123.737 27.9441 123.912 27.9631C124.087 27.982 124.241 28.008 124.374 28.0412V30.7259C124.232 30.6832 124.035 30.6454 123.784 30.6122C123.533 30.5791 123.304 30.5625 123.095 30.5625C122.65 30.5625 122.252 30.6596 121.902 30.8537C121.556 31.0431 121.282 31.3082 121.078 31.6491C120.879 31.9901 120.78 32.383 120.78 32.8281V39H117.754ZM130.402 39.2131C129.279 39.2131 128.314 38.9858 127.504 38.5312C126.699 38.072 126.079 37.4233 125.643 36.5852C125.208 35.7424 124.99 34.7457 124.99 33.5952C124.99 32.473 125.208 31.4882 125.643 30.6406C126.079 29.7931 126.692 29.1326 127.483 28.6591C128.278 28.1856 129.211 27.9489 130.281 27.9489C131.001 27.9489 131.671 28.0649 132.291 28.2969C132.916 28.5241 133.46 28.8674 133.924 29.3267C134.393 29.786 134.758 30.3636 135.018 31.0597C135.279 31.7509 135.409 32.5606 135.409 33.4886V34.3196H126.197V32.4446H132.561C132.561 32.009 132.466 31.6231 132.277 31.2869C132.087 30.9508 131.824 30.688 131.488 30.4986C131.157 30.3045 130.771 30.2074 130.331 30.2074C129.871 30.2074 129.464 30.3139 129.109 30.527C128.759 30.7353 128.484 31.017 128.285 31.3722C128.086 31.7225 127.984 32.1132 127.98 32.544V34.3267C127.98 34.8665 128.079 35.3329 128.278 35.7259C128.482 36.1188 128.768 36.4219 129.137 36.6349C129.507 36.848 129.945 36.9545 130.451 36.9545C130.788 36.9545 131.095 36.9072 131.375 36.8125C131.654 36.7178 131.893 36.5758 132.092 36.3864C132.291 36.197 132.442 35.965 132.547 35.6903L135.345 35.875C135.203 36.5473 134.912 37.1345 134.471 37.6364C134.036 38.1335 133.472 38.5218 132.781 38.8011C132.094 39.0758 131.301 39.2131 130.402 39.2131ZM142.355 39.2131C141.233 39.2131 140.267 38.9858 139.457 38.5312C138.652 38.072 138.032 37.4233 137.596 36.5852C137.161 35.7424 136.943 34.7457 136.943 33.5952C136.943 32.473 137.161 31.4882 137.596 30.6406C138.032 29.7931 138.645 29.1326 139.436 28.6591C140.231 28.1856 141.164 27.9489 142.234 27.9489C142.954 27.9489 143.624 28.0649 144.244 28.2969C144.869 28.5241 145.413 28.8674 145.877 29.3267C146.346 29.786 146.711 30.3636 146.971 31.0597C147.232 31.7509 147.362 32.5606 147.362 33.4886V34.3196H138.15V32.4446H144.514C144.514 32.009 144.419 31.6231 144.23 31.2869C144.04 30.9508 143.778 30.688 143.441 30.4986C143.11 30.3045 142.724 30.2074 142.284 30.2074C141.824 30.2074 141.417 30.3139 141.062 30.527C140.712 30.7353 140.437 31.017 140.238 31.3722C140.039 31.7225 139.938 32.1132 139.933 32.544V34.3267C139.933 34.8665 140.032 35.3329 140.231 35.7259C140.435 36.1188 140.721 36.4219 141.091 36.6349C141.46 36.848 141.898 36.9545 142.404 36.9545C142.741 36.9545 143.048 36.9072 143.328 36.8125C143.607 36.7178 143.846 36.5758 144.045 36.3864C144.244 36.197 144.395 35.965 144.5 35.6903L147.298 35.875C147.156 36.5473 146.865 37.1345 146.424 37.6364C145.989 38.1335 145.425 38.5218 144.734 38.8011C144.047 39.0758 143.254 39.2131 142.355 39.2131ZM166.856 29.5469H163.745C163.688 29.1444 163.572 28.7869 163.397 28.4744C163.222 28.1572 162.997 27.8873 162.722 27.6648C162.448 27.4422 162.13 27.2718 161.771 27.1534C161.415 27.035 161.03 26.9759 160.613 26.9759C159.86 26.9759 159.204 27.1629 158.646 27.5369C158.087 27.9062 157.654 28.446 157.346 29.1562C157.038 29.8617 156.884 30.7187 156.884 31.7273C156.884 32.7642 157.038 33.6354 157.346 34.3409C157.658 35.0464 158.094 35.5791 158.653 35.9389C159.211 36.2988 159.858 36.4787 160.592 36.4787C161.004 36.4787 161.385 36.4242 161.735 36.3153C162.09 36.2064 162.405 36.0478 162.68 35.8395C162.954 35.6264 163.182 35.3684 163.362 35.0653C163.546 34.7623 163.674 34.4167 163.745 34.0284L166.856 34.0426C166.775 34.7102 166.574 35.3542 166.252 35.9744C165.935 36.59 165.506 37.1416 164.967 37.6293C164.432 38.1122 163.792 38.4957 163.049 38.7798C162.31 39.0592 161.475 39.1989 160.542 39.1989C159.245 39.1989 158.085 38.9053 157.062 38.3182C156.044 37.7311 155.239 36.8812 154.647 35.7685C154.06 34.6558 153.766 33.3087 153.766 31.7273C153.766 30.1411 154.065 28.7917 154.661 27.679C155.258 26.5663 156.067 25.7187 157.09 25.1364C158.113 24.5492 159.263 24.2557 160.542 24.2557C161.385 24.2557 162.166 24.3741 162.886 24.6108C163.61 24.8475 164.252 25.1932 164.81 25.6477C165.369 26.0975 165.824 26.6491 166.174 27.3026C166.529 27.956 166.756 28.7041 166.856 29.5469ZM172.03 24.4545V39H169.004V24.4545H172.03ZM177.564 39.206C176.868 39.206 176.248 39.0852 175.703 38.8438C175.159 38.5975 174.728 38.2353 174.411 37.7571C174.098 37.2741 173.942 36.6728 173.942 35.9531C173.942 35.3471 174.053 34.8381 174.276 34.4261C174.498 34.0142 174.801 33.6828 175.185 33.4318C175.569 33.1809 176.004 32.9915 176.492 32.8636C176.984 32.7358 177.5 32.6458 178.04 32.5938C178.675 32.5275 179.186 32.4659 179.574 32.4091C179.962 32.3475 180.244 32.2576 180.419 32.1392C180.595 32.0208 180.682 31.8456 180.682 31.6136V31.571C180.682 31.1212 180.54 30.7732 180.256 30.527C179.977 30.2808 179.579 30.1577 179.063 30.1577C178.518 30.1577 178.085 30.2784 177.763 30.5199C177.441 30.7566 177.228 31.0549 177.124 31.4148L174.326 31.1875C174.468 30.5246 174.747 29.9517 175.164 29.4688C175.58 28.9811 176.118 28.607 176.776 28.3466C177.439 28.0814 178.206 27.9489 179.077 27.9489C179.683 27.9489 180.263 28.0199 180.817 28.1619C181.376 28.304 181.871 28.5241 182.301 28.8224C182.737 29.1207 183.08 29.5043 183.331 29.973C183.582 30.437 183.708 30.9934 183.708 31.642V39H180.838V37.4872H180.753C180.578 37.8281 180.344 38.1288 180.05 38.3892C179.757 38.6449 179.404 38.8461 178.992 38.9929C178.58 39.1349 178.104 39.206 177.564 39.206ZM178.431 37.1179C178.876 37.1179 179.269 37.0303 179.61 36.8551C179.951 36.6752 180.218 36.4337 180.412 36.1307C180.606 35.8277 180.703 35.4844 180.703 35.1009V33.9432C180.609 34.0047 180.479 34.0616 180.313 34.1136C180.152 34.161 179.97 34.206 179.766 34.2486C179.562 34.2865 179.359 34.322 179.155 34.3551C178.952 34.3835 178.767 34.4096 178.601 34.4332C178.246 34.4853 177.936 34.5682 177.671 34.6818C177.406 34.7955 177.2 34.9493 177.053 35.1435C176.906 35.3329 176.833 35.5696 176.833 35.8537C176.833 36.2656 176.982 36.5805 177.28 36.7983C177.583 37.0114 177.967 37.1179 178.431 37.1179ZM195.132 31.2017L192.362 31.3722C192.315 31.1354 192.213 30.9223 192.056 30.733C191.9 30.5388 191.694 30.3849 191.439 30.2713C191.188 30.1529 190.887 30.0938 190.537 30.0938C190.068 30.0938 189.672 30.1932 189.35 30.392C189.029 30.5862 188.868 30.8466 188.868 31.1733C188.868 31.4337 188.972 31.6539 189.18 31.8338C189.388 32.0137 189.746 32.1581 190.252 32.267L192.227 32.6648C193.288 32.8826 194.078 33.233 194.599 33.7159C195.12 34.1989 195.38 34.8333 195.38 35.6193C195.38 36.3343 195.17 36.9616 194.748 37.5014C194.332 38.0412 193.759 38.4626 193.029 38.7656C192.305 39.0639 191.469 39.2131 190.522 39.2131C189.078 39.2131 187.928 38.9124 187.071 38.3111C186.218 37.705 185.719 36.8812 185.572 35.8395L188.548 35.6832C188.638 36.1236 188.856 36.4598 189.201 36.6918C189.547 36.919 189.99 37.0327 190.529 37.0327C191.06 37.0327 191.486 36.9309 191.808 36.7273C192.135 36.5189 192.3 36.2514 192.305 35.9247C192.3 35.6501 192.184 35.4252 191.957 35.25C191.73 35.0701 191.379 34.9328 190.906 34.8381L189.017 34.4616C187.951 34.2486 187.158 33.8793 186.637 33.3537C186.121 32.8281 185.863 32.1581 185.863 31.3438C185.863 30.643 186.053 30.0393 186.431 29.5327C186.815 29.026 187.352 28.6354 188.044 28.3608C188.74 28.0862 189.554 27.9489 190.487 27.9489C191.865 27.9489 192.949 28.2401 193.74 28.8224C194.535 29.4048 194.999 30.1979 195.132 31.2017ZM206.362 31.2017L203.592 31.3722C203.545 31.1354 203.443 30.9223 203.287 30.733C203.131 30.5388 202.925 30.3849 202.669 30.2713C202.418 30.1529 202.117 30.0938 201.767 30.0938C201.298 30.0938 200.903 30.1932 200.581 30.392C200.259 30.5862 200.098 30.8466 200.098 31.1733C200.098 31.4337 200.202 31.6539 200.411 31.8338C200.619 32.0137 200.976 32.1581 201.483 32.267L203.457 32.6648C204.518 32.8826 205.309 33.233 205.83 33.7159C206.35 34.1989 206.611 34.8333 206.611 35.6193C206.611 36.3343 206.4 36.9616 205.979 37.5014C205.562 38.0412 204.989 38.4626 204.26 38.7656C203.536 39.0639 202.7 39.2131 201.753 39.2131C200.309 39.2131 199.158 38.9124 198.301 38.3111C197.449 37.705 196.949 36.8812 196.803 35.8395L199.778 35.6832C199.868 36.1236 200.086 36.4598 200.432 36.6918C200.777 36.919 201.22 37.0327 201.76 37.0327C202.29 37.0327 202.716 36.9309 203.038 36.7273C203.365 36.5189 203.531 36.2514 203.536 35.9247C203.531 35.6501 203.415 35.4252 203.188 35.25C202.96 35.0701 202.61 34.9328 202.136 34.8381L200.247 34.4616C199.182 34.2486 198.389 33.8793 197.868 33.3537C197.352 32.8281 197.094 32.1581 197.094 31.3438C197.094 30.643 197.283 30.0393 197.662 29.5327C198.045 29.026 198.583 28.6354 199.274 28.3608C199.97 28.0862 200.785 27.9489 201.717 27.9489C203.095 27.9489 204.179 28.2401 204.97 28.8224C205.766 29.4048 206.23 30.1979 206.362 31.2017Z" fill="#0A2134"/>
</g>
<defs>
<filter id="filter0_dd_1_752" x="0" y="0" width="259" height="66" filterUnits="userSpaceOnUse" color-interpolation-filters="sRGB">
<feFlood flood-opacity="0" result="BackgroundImageFix"/>
<feColorMatrix in="SourceAlpha" type="matrix" values="0 0 0 0 0 0 0 0 0 0 0 0 0 0 0 0 0 0 127 0" result="hardAlpha"/>
<feOffset dy="1"/>
<feGaussianBlur stdDeviation="1"/>
<feColorMatrix type="matrix" values="0 0 0 0 0.0627451 0 0 0 0 0.0941176 0 0 0 0 0.156863 0 0 0 0.06 0"/>
<feBlend mode="normal" in2="BackgroundImageFix" result="effect1_dropShadow_1_752"/>
<feColorMatrix in="SourceAlpha" type="matrix" values="0 0 0 0 0 0 0 0 0 0 0 0 0 0 0 0 0 0 127 0" result="hardAlpha"/>
<feOffset dy="1"/>
<feGaussianBlur stdDeviation="1.5"/>
<feColorMatrix type="matrix" values="0 0 0 0 0.0627451 0 0 0 0 0.0941176 0 0 0 0 0.156863 0 0 0 0.1 0"/>
<feBlend mode="normal" in2="effect1_dropShadow_1_752" result="effect2_dropShadow_1_752"/>
<feBlend mode="normal" in="SourceGraphic" in2="effect2_dropShadow_1_752" result="shape"/>
</filter>
</defs>
</svg>
